<svg width="578" height="86" viewBox="0 0 578 86" fill="none" xmlns="http://www.w3.org/2000/svg">
<path d="M41.544 58.724C42.072 58.724 42.54 58.928 42.948 59.336L46.764 63.476C44.652 66.092 42.048 68.096 38.952 69.488C35.88 70.88 32.184 71.576 27.864 71.576C24 71.576 20.52 70.916 17.424 69.596C14.352 68.276 11.724 66.44 9.54 64.088C7.356 61.736 5.676 58.928 4.5 55.664C3.348 52.4 2.772 48.836 2.772 44.972C2.772 41.06 3.396 37.484 4.644 34.244C5.892 30.98 7.644 28.172 9.9 25.82C12.18 23.468 14.892 21.644 18.036 20.348C21.18 19.028 24.66 18.368 28.476 18.368C32.268 18.368 35.628 18.992 38.556 20.24C41.508 21.488 44.016 23.12 46.08 25.136L42.84 29.636C42.648 29.924 42.396 30.176 42.084 30.392C41.796 30.608 41.388 30.716 40.86 30.716C40.5 30.716 40.128 30.62 39.744 30.428C39.36 30.212 38.94 29.96 38.484 29.672C38.028 29.36 37.5 29.024 36.9 28.664C36.3 28.304 35.604 27.98 34.812 27.692C34.02 27.38 33.096 27.128 32.04 26.936C31.008 26.72 29.808 26.612 28.44 26.612C26.112 26.612 23.976 27.032 22.032 27.872C20.112 28.688 18.456 29.888 17.064 31.472C15.672 33.032 14.592 34.952 13.824 37.232C13.056 39.488 12.672 42.068 12.672 44.972C12.672 47.9 13.08 50.504 13.896 52.784C14.736 55.064 15.864 56.984 17.28 58.544C18.696 60.104 20.364 61.304 22.284 62.144C24.204 62.96 26.268 63.368 28.476 63.368C29.796 63.368 30.984 63.296 32.04 63.152C33.12 63.008 34.104 62.78 34.992 62.468C35.904 62.156 36.756 61.76 37.548 61.28C38.364 60.776 39.168 60.164 39.96 59.444C40.2 59.228 40.452 59.06 40.716 58.94C40.98 58.796 41.256 58.724 41.544 58.724ZM87.4896 63.008V71H56.9976V18.944H66.6816V63.008H87.4896ZM145.82 44.972C145.82 48.788 145.184 52.328 143.912 55.592C142.664 58.832 140.888 61.64 138.584 64.016C136.28 66.392 133.508 68.252 130.268 69.596C127.028 70.916 123.428 71.576 119.468 71.576C115.532 71.576 111.944 70.916 108.704 69.596C105.464 68.252 102.68 66.392 100.352 64.016C98.0477 61.64 96.2597 58.832 94.9877 55.592C93.7157 52.328 93.0797 48.788 93.0797 44.972C93.0797 41.156 93.7157 37.628 94.9877 34.388C96.2597 31.124 98.0477 28.304 100.352 25.928C102.68 23.552 105.464 21.704 108.704 20.384C111.944 19.04 115.532 18.368 119.468 18.368C122.108 18.368 124.592 18.68 126.92 19.304C129.248 19.904 131.384 20.768 133.328 21.896C135.272 23 137.012 24.356 138.548 25.964C140.108 27.548 141.428 29.324 142.508 31.292C143.588 33.26 144.404 35.396 144.956 37.7C145.532 40.004 145.82 42.428 145.82 44.972ZM135.92 44.972C135.92 42.116 135.536 39.56 134.768 37.304C134 35.024 132.908 33.092 131.492 31.508C130.076 29.924 128.348 28.712 126.308 27.872C124.292 27.032 122.012 26.612 119.468 26.612C116.924 26.612 114.632 27.032 112.592 27.872C110.576 28.712 108.848 29.924 107.408 31.508C105.992 33.092 104.9 35.024 104.132 37.304C103.364 39.56 102.98 42.116 102.98 44.972C102.98 47.828 103.364 50.396 104.132 52.676C104.9 54.932 105.992 56.852 107.408 58.436C108.848 59.996 110.576 61.196 112.592 62.036C114.632 62.876 116.924 63.296 119.468 63.296C122.012 63.296 124.292 62.876 126.308 62.036C128.348 61.196 130.076 59.996 131.492 58.436C132.908 56.852 134 54.932 134.768 52.676C135.536 50.396 135.92 47.828 135.92 44.972ZM178.876 63.188C180.748 63.188 182.416 62.876 183.88 62.252C185.368 61.628 186.616 60.752 187.624 59.624C188.632 58.496 189.4 57.128 189.928 55.52C190.48 53.912 190.756 52.112 190.756 50.12V18.944H200.44V50.12C200.44 53.216 199.936 56.084 198.928 58.724C197.944 61.34 196.516 63.608 194.644 65.528C192.796 67.424 190.54 68.912 187.876 69.992C185.212 71.048 182.212 71.576 178.876 71.576C175.516 71.576 172.504 71.048 169.84 69.992C167.176 68.912 164.908 67.424 163.036 65.528C161.188 63.608 159.76 61.34 158.752 58.724C157.768 56.084 157.276 53.216 157.276 50.12V18.944H166.96V50.084C166.96 52.076 167.224 53.876 167.752 55.484C168.304 57.092 169.084 58.472 170.092 59.624C171.124 60.752 172.372 61.628 173.836 62.252C175.324 62.876 177.004 63.188 178.876 63.188ZM261.186 44.972C261.186 48.788 260.55 52.292 259.278 55.484C258.006 58.676 256.218 61.424 253.914 63.728C251.61 66.032 248.838 67.82 245.598 69.092C242.358 70.364 238.758 71 234.798 71H214.962V18.944H234.798C238.758 18.944 242.358 19.592 245.598 20.888C248.838 22.16 251.61 23.948 253.914 26.252C256.218 28.532 258.006 31.268 259.278 34.46C260.55 37.652 261.186 41.156 261.186 44.972ZM251.25 44.972C251.25 42.116 250.866 39.56 250.098 37.304C249.354 35.024 248.262 33.104 246.822 31.544C245.406 29.96 243.678 28.748 241.638 27.908C239.622 27.068 237.342 26.648 234.798 26.648H224.682V63.296H234.798C237.342 63.296 239.622 62.876 241.638 62.036C243.678 61.196 245.406 59.996 246.822 58.436C248.262 56.852 249.354 54.932 250.098 52.676C250.866 50.396 251.25 47.828 251.25 44.972ZM292.811 63.44C294.611 63.44 296.123 63.224 297.347 62.792C298.571 62.36 299.543 61.784 300.263 61.064C301.007 60.344 301.535 59.504 301.847 58.544C302.183 57.584 302.351 56.564 302.351 55.484C302.351 54.356 302.171 53.348 301.811 52.46C301.451 51.548 300.887 50.78 300.119 50.156C299.351 49.508 298.355 49.016 297.131 48.68C295.931 48.344 294.479 48.176 292.775 48.176H283.019V63.44H292.811ZM283.019 26.432V41.48H290.723C294.035 41.48 296.531 40.88 298.211 39.68C299.915 38.48 300.767 36.572 300.767 33.956C300.767 31.244 299.999 29.312 298.463 28.16C296.927 27.008 294.527 26.432 291.263 26.432H283.019ZM291.263 18.944C294.671 18.944 297.587 19.268 300.011 19.916C302.435 20.564 304.415 21.488 305.951 22.688C307.511 23.888 308.651 25.34 309.371 27.044C310.091 28.748 310.451 30.668 310.451 32.804C310.451 34.028 310.271 35.204 309.911 36.332C309.551 37.436 308.987 38.48 308.219 39.464C307.475 40.424 306.515 41.3 305.339 42.092C304.187 42.884 302.807 43.556 301.199 44.108C308.351 45.716 311.927 49.58 311.927 55.7C311.927 57.908 311.507 59.948 310.667 61.82C309.827 63.692 308.603 65.312 306.995 66.68C305.387 68.024 303.407 69.08 301.055 69.848C298.703 70.616 296.015 71 292.991 71H273.335V18.944H291.263ZM345.278 63.188C347.15 63.188 348.818 62.876 350.282 62.252C351.77 61.628 353.018 60.752 354.026 59.624C355.034 58.496 355.802 57.128 356.33 55.52C356.882 53.912 357.158 52.112 357.158 50.12V18.944H366.842V50.12C366.842 53.216 366.338 56.084 365.33 58.724C364.346 61.34 362.918 63.608 361.046 65.528C359.198 67.424 356.942 68.912 354.278 69.992C351.614 71.048 348.614 71.576 345.278 71.576C341.918 71.576 338.906 71.048 336.242 69.992C333.578 68.912 331.31 67.424 329.438 65.528C327.59 63.608 326.162 61.34 325.154 58.724C324.17 56.084 323.678 53.216 323.678 50.12V18.944H333.362V50.084C333.362 52.076 333.626 53.876 334.154 55.484C334.706 57.092 335.486 58.472 336.494 59.624C337.526 60.752 338.774 61.628 340.238 62.252C341.726 62.876 343.406 63.188 345.278 63.188ZM427.587 44.972C427.587 48.788 426.951 52.292 425.679 55.484C424.407 58.676 422.619 61.424 420.315 63.728C418.011 66.032 415.239 67.82 411.999 69.092C408.759 70.364 405.159 71 401.199 71H381.363V18.944H401.199C405.159 18.944 408.759 19.592 411.999 20.888C415.239 22.16 418.011 23.948 420.315 26.252C422.619 28.532 424.407 31.268 425.679 34.46C426.951 37.652 427.587 41.156 427.587 44.972ZM417.651 44.972C417.651 42.116 417.267 39.56 416.499 37.304C415.755 35.024 414.663 33.104 413.223 31.544C411.807 29.96 410.079 28.748 408.039 27.908C406.023 27.068 403.743 26.648 401.199 26.648H391.083V63.296H401.199C403.743 63.296 406.023 62.876 408.039 62.036C410.079 61.196 411.807 59.996 413.223 58.436C414.663 56.852 415.755 54.932 416.499 52.676C417.267 50.396 417.651 47.828 417.651 44.972ZM482.649 44.9V65.96C480.009 67.904 477.189 69.332 474.189 70.244C471.213 71.132 468.021 71.576 464.613 71.576C460.365 71.576 456.513 70.916 453.057 69.596C449.625 68.276 446.685 66.44 444.237 64.088C441.813 61.736 439.941 58.928 438.621 55.664C437.301 52.4 436.641 48.836 436.641 44.972C436.641 41.06 437.277 37.472 438.549 34.208C439.821 30.944 441.621 28.136 443.949 25.784C446.301 23.432 449.145 21.608 452.481 20.312C455.817 19.016 459.561 18.368 463.713 18.368C465.825 18.368 467.793 18.536 469.617 18.872C471.465 19.208 473.169 19.676 474.729 20.276C476.313 20.852 477.753 21.56 479.049 22.4C480.345 23.24 481.533 24.164 482.613 25.172L479.841 29.564C479.409 30.26 478.845 30.692 478.149 30.86C477.453 31.004 476.697 30.824 475.881 30.32C475.089 29.864 474.297 29.408 473.505 28.952C472.713 28.496 471.825 28.1 470.841 27.764C469.881 27.428 468.789 27.152 467.565 26.936C466.365 26.72 464.973 26.612 463.389 26.612C460.821 26.612 458.493 27.044 456.405 27.908C454.341 28.772 452.577 30.008 451.113 31.616C449.649 33.224 448.521 35.156 447.729 37.412C446.937 39.668 446.541 42.188 446.541 44.972C446.541 47.948 446.961 50.612 447.801 52.964C448.665 55.292 449.865 57.272 451.401 58.904C452.961 60.512 454.833 61.748 457.017 62.612C459.201 63.452 461.637 63.872 464.325 63.872C466.245 63.872 467.961 63.668 469.473 63.26C470.985 62.852 472.461 62.3 473.901 61.604V52.172H467.349C466.725 52.172 466.233 52.004 465.873 51.668C465.537 51.308 465.369 50.876 465.369 50.372V44.9H482.649ZM505.299 26.648V41.084H523.515V48.536H505.299V63.26H528.411V71H495.579V18.944H528.411V26.648H505.299ZM576.953 26.9H561.257V71H551.573V26.9H535.877V18.944H576.953V26.9Z" fill="white"/>
</svg>
